<svg width="243" height="27" viewBox="0 0 243 27" fill="none" xmlns="http://www.w3.org/2000/svg">
<path d="M6.388 15.236H5.092V26H0.16V0.799998H5.092V11.96L6.244 11.456L13.192 0.799998H18.808L11.464 11.384L9.52 12.752L11.536 14.156L19.924 26H13.84L6.388 15.236ZM22.9882 0.799998H27.9202V26H22.9882V0.799998ZM48.6978 26H32.7498V0.799998H37.6818V21.608H48.6978V26ZM67.19 26H51.242V0.799998H56.174V21.608H67.19V26ZM75.9982 12.86L74.0182 8.9H73.8382L74.4142 12.86V26H69.7342V0.619998H73.3342L82.8742 14.048L84.7822 17.9H84.9622L84.3862 14.048V0.799998H89.0662V26.18H85.4662L75.9982 12.86ZM93.3944 0.799998H108.334V5.192H98.3264V11.06H107.434V15.452H98.3264V21.608H108.514V26H93.3944V0.799998ZM130.095 5.192H122.751V26H117.819V5.192H110.439V0.799998H130.095V5.192ZM138.53 13.58H147.566V17.72H138.53V13.58ZM174.532 5.192H167.188V26H162.256V5.192H154.876V0.799998H174.532V5.192ZM177.101 0.799998H192.041V5.192H182.033V11.06H191.141V15.452H182.033V21.608H192.221V26H177.101V0.799998ZM208.33 20.42H200.59L198.682 26H193.75L202.822 0.619998H206.458L215.53 26H210.346L208.33 20.42ZM201.85 16.46H207.25L205.378 10.844L204.622 6.884H204.442L203.686 10.88L201.85 16.46ZM237.255 12.932L237.795 7.928H237.579L236.031 11.96L230.667 21.356H229.083L223.431 11.924L221.847 7.928H221.667L222.387 12.896V26H217.707V0.799998H222.207L228.939 12.32L230.127 15.2H230.271L231.351 12.248L237.723 0.799998H242.187V26H237.255V12.932Z" fill="#DF2834"/>
</svg>
